<svg width="23" height="35" viewBox="0 0 23 35" fill="none" xmlns="http://www.w3.org/2000/svg">
<path d="M14.8255 25.5098L21.252 16.0647C21.273 16.0341 21.2906 16.002 21.3043 15.9687C22.4141 14.3146 23 12.425 23 10.4959C23 4.70846 17.8487 0 11.5169 0C5.18517 0 0.033433 4.70846 0.033433 10.4959C0.033433 12.4254 0.620231 14.3158 1.73082 15.9711C1.74368 16.0001 1.75868 16.0283 1.77668 16.0557L7.97257 25.5333C3.16288 26.1547 0 27.9624 0 30.1552C0 32.8722 5.05144 35 11.4998 35C17.9481 35 22.9996 32.8718 22.9996 30.1552C23 27.9522 19.6897 26.1042 14.8255 25.5098ZM2.88513 15.4418C1.86069 13.9514 1.31933 12.2413 1.31933 10.4959C1.31933 5.35647 5.8937 1.17535 11.5169 1.17535C17.1397 1.17535 21.7141 5.35647 21.7141 10.4959C21.7141 12.2421 21.1727 13.9522 20.1487 15.4418C20.1273 15.4731 20.1097 15.5056 20.0956 15.5393L13.306 25.5169C13.204 25.6599 13.1839 25.6924 13.0592 25.8797L11.3446 28.3996L2.94256 15.5475C2.92756 15.5111 2.90827 15.4755 2.88513 15.4418ZM11.5002 33.8246C5.48093 33.8246 1.28633 31.8904 1.28633 30.1552C1.28633 28.5802 4.44535 27.0962 8.69438 26.6366L10.7818 29.83C10.8971 30.0059 11.1037 30.1145 11.3279 30.116C11.3296 30.116 11.3318 30.116 11.3335 30.116C11.5555 30.116 11.7621 30.011 11.8796 29.8386L14.0742 26.6135C18.3909 27.0409 21.7137 28.5626 21.7137 30.1552C21.7141 31.8908 17.5195 33.8246 11.5002 33.8246Z" fill="white"/>
<path d="M15.6748 10.4956C15.6748 8.39129 13.8017 6.6792 11.4995 6.6792C9.19734 6.6792 7.32422 8.39129 7.32422 10.4956C7.32422 12.5998 9.19734 14.3119 11.4995 14.3119C13.8017 14.3119 15.6748 12.5998 15.6748 10.4956ZM8.61012 10.4956C8.61012 9.0393 9.9063 7.85455 11.4995 7.85455C13.0928 7.85455 14.3889 9.0393 14.3889 10.4956C14.3889 11.9518 13.0932 13.1366 11.4995 13.1366C9.90587 13.1366 8.61012 11.9518 8.61012 10.4956Z" fill="white"/>
</svg>
