<svg width="56" height="117" viewBox="0 0 56 117" fill="none" xmlns="http://www.w3.org/2000/svg">
<path d="M26.9437 7.36906V14.7202L25.8741 15.5232C23.0509 17.6108 20.4382 21.4648 18.5445 26.3537C17.8957 28.0309 16.7734 31.7243 16.7734 32.1882C16.7734 32.2953 17.4222 32.6522 18.2288 32.9912C21.7183 34.4543 25.1902 36.5062 26.856 38.0763L27.7152 38.8971L28.5218 38.1299C30.1351 36.5597 32.9757 34.829 36.5353 33.2588C38.0608 32.5808 38.5167 32.3131 38.5167 32.0455C38.5167 31.4032 37.4471 27.9238 36.5704 25.7649C35.5709 23.3026 34.3434 21.0009 33.0634 19.2523C32.1165 17.9498 29.7668 15.5945 28.9076 15.0593L28.3465 14.7381V7.36906V2.67029e-05H27.6451H26.9437V7.36906Z" fill="white"/>
<path d="M52.0003 21.5184L49.4577 33.0983L46.845 33.134C41.4267 33.1875 37.3236 34.3652 33.8166 36.8631C32.7645 37.6125 29.9238 39.9499 29.9238 40.0748C29.9238 40.0927 30.2395 40.6993 30.6077 41.4309C31.9754 44.0359 33.0626 48.0683 33.4483 52.0116C33.5711 53.1892 33.6763 54.1706 33.6938 54.2062C33.7114 54.2241 34.4654 53.8851 35.3772 53.4568C38.551 51.9581 41.3917 51.173 44.8285 50.9053L46.4943 50.7626L47.3185 49.0854C49.0018 45.6596 50.1591 41.1454 50.7904 35.5428C51.0534 33.2232 51.6671 30.0829 53.5784 21.4292C54.9286 15.2913 56.0158 10.2597 55.9983 10.2418C55.9632 10.2062 55.63 10.1348 55.2443 10.0813L54.5429 9.95636L52.0003 21.5184Z" fill="white"/>
<path d="M0.325119 12.0795C0.0270249 12.133 -0.0431148 12.2401 0.0270249 12.5434C0.0796296 12.7575 1.18433 17.7713 2.48191 23.6951C4.4809 32.7949 4.84913 34.6862 4.84913 35.953C4.84913 40.4137 5.9889 46.0877 7.74239 50.3342L8.37365 51.8687L9.54849 51.9758C12.6522 52.2791 17.4567 53.4032 20.3675 54.5094C23.4362 55.6871 26.8379 57.5605 28.2057 58.8452L28.6616 59.2734L29.0123 58.1493C29.5909 56.2223 29.8013 54.4202 29.7137 51.9758C29.6435 49.9596 29.5558 49.4778 29.0123 47.872C28.1355 45.2848 26.8905 43.3399 24.6636 41.056C22.5769 38.9149 21.4547 38.2191 18.7017 37.3269C16.7203 36.6846 13.0029 35.846 9.84658 35.3464C8.6016 35.1323 7.32155 34.9182 7.02346 34.8825C6.62016 34.8111 6.44481 34.6684 6.3922 34.3829C6.3396 34.1688 5.21736 29.0301 3.88471 22.9636C1.2194 10.9019 1.53503 11.8476 0.325119 12.0795Z" fill="white"/>
<path d="M52.0022 41.6983L49.4596 53.2604L46.8644 53.2961C40.096 53.3853 35.7824 55.0268 30.82 59.4161L29.8906 60.2369L30.592 61.5572C31.9773 64.1979 33.0644 68.2125 33.4502 72.1736C33.573 73.3512 33.6782 74.3326 33.6957 74.3683C33.7132 74.3861 34.3971 74.0828 35.2037 73.7081C38.3249 72.2093 40.9902 71.4599 44.0413 71.1744C45.1986 71.0674 46.2507 70.9425 46.3735 70.9068C46.7066 70.7997 48.0393 67.8378 48.8459 65.3934C49.7226 62.7348 50.3539 59.5767 50.7923 55.7048C51.0553 53.3853 51.6865 50.2271 53.5803 41.5912C54.948 35.4534 56.0177 30.4217 56.0001 30.4039C55.9651 30.3682 55.6319 30.2968 55.2461 30.2433L54.5623 30.1184L52.0022 41.6983Z" fill="white"/>
<path d="M0.676974 31.2248C0.361346 31.2962 0.0632519 31.3854 0.0281821 31.4211C-0.00688778 31.4568 1.06274 36.4706 2.41293 42.555C4.51712 52.1543 4.85029 53.8315 4.85029 55.1876C4.85029 59.3985 5.90238 64.8405 7.49806 68.9265C7.88383 69.9256 8.2696 70.7999 8.3222 70.8713C8.39234 70.9427 9.35676 71.139 10.4615 71.2817C17.1423 72.2274 23.5951 74.5469 27.295 77.3125C28.0139 77.8656 28.6627 78.2403 28.7329 78.1868C28.7855 78.1154 29.0134 77.4196 29.2238 76.6345C29.82 74.422 29.9077 70.5323 29.4167 68.4625C28.6627 65.2509 27.067 62.5745 24.2965 59.8624C22.9288 58.5242 22.2625 58.0246 21.1227 57.4714C18.8432 56.3652 13.8983 55.1162 8.51509 54.3133L6.48104 54.01L3.95601 42.5193C2.57075 36.2208 1.39591 31.0464 1.3433 31.0643C1.2907 31.0821 0.992603 31.1535 0.676974 31.2248Z" fill="white"/>
<path d="M0.589043 50.37C0.0980647 50.4949 -0.0422147 50.602 0.0103901 50.8339C0.0629949 50.9945 1.32551 56.7042 2.81598 63.5201C5.35854 75.0286 6.18268 79.3287 7.12957 85.7164C7.81343 90.2306 8.69018 92.2468 11.0925 94.6556C13.109 96.7075 15.5989 98.1171 18.9656 99.1163C20.9296 99.7051 24.0508 100.276 25.2958 100.276H26.2426V106.771C26.2426 110.339 26.3128 113.694 26.418 114.211C26.6284 115.353 27.1194 115.888 28.1364 116.067C29.1885 116.245 29.96 115.835 30.4335 114.854L30.8193 114.033L30.7491 102.203C30.679 89.5347 30.679 89.731 29.7321 86.8583C28.5222 83.1827 25.9621 79.5963 23.1039 77.6337C20.0353 75.5104 15.0554 73.8688 8.88306 72.9589C7.58548 72.7626 6.46324 72.5485 6.41064 72.4771C6.3405 72.4057 5.21826 67.4098 3.88561 61.379C2.57049 55.3481 1.43072 50.3522 1.37811 50.2987C1.30797 50.2451 0.957276 50.263 0.589043 50.37Z" fill="white"/>
<path d="M54.5798 50.2988C54.5448 50.3523 53.3699 55.5445 52.0022 61.843L49.4772 73.2802L46.4962 73.3872C40.7097 73.6013 37.1852 74.6898 33.4327 77.4197C32.6086 78.0085 31.4863 78.9185 30.9252 79.4359L29.9082 80.3816L30.6973 81.8982C32.6437 85.7165 33.6081 90.4627 33.6081 96.2972V99.384H34.4497C35.6071 99.384 37.3781 98.9737 38.7107 98.4027C45.4792 95.4943 49.863 87.019 50.8975 74.8503C50.9852 73.8155 54.5974 56.7578 55.9651 50.9233C56.0352 50.6021 55.9476 50.5129 55.3514 50.3523C54.9656 50.2631 54.6149 50.2274 54.5798 50.2988Z" fill="white"/>
</svg>
