<svg width="276" height="335" viewBox="0 0 276 335" fill="none" xmlns="http://www.w3.org/2000/svg">
<g clip-path="url(#clip0_136_76)">
<path d="M95.0322 158.973H181.899C183.153 158.973 184.32 159.394 185.181 160.093L185.349 160.236C186.213 161.014 186.639 162.004 186.639 162.97V188.959C186.639 189.923 186.212 190.916 185.347 191.694C184.471 192.477 183.233 192.956 181.899 192.956H95.0322C93.695 192.956 92.4578 192.476 91.582 191.692H91.583C90.719 190.917 90.293 189.925 90.293 188.959V162.97C90.2931 161.009 92.1539 158.973 95.0322 158.973ZM99.7715 184.962H133.728V166.967H99.7715V184.962ZM143.206 184.962H177.162V166.967H143.206V184.962Z" stroke="#DCA276" stroke-width="5"/>
<path d="M135.476 62.4263C137.203 61.2321 139.661 61.2191 141.404 62.3862L141.452 62.4194L271.757 153.384L271.825 153.432C272.946 154.231 273.51 155.367 273.513 156.474V182.415C273.473 183.828 272.5 185.285 270.709 185.966L270.69 185.974L270.672 185.981C269.038 186.632 267.138 186.432 265.74 185.504L265.688 185.469L248.488 173.456L244.557 170.709V299.409C244.557 300.377 244.131 301.366 243.267 302.142C242.393 302.926 241.157 303.406 239.817 303.406H37.1221C35.7822 303.406 34.5462 302.926 33.6729 302.142C32.8084 301.366 32.3829 300.377 32.3828 299.409V170.709L28.4512 173.456L11.1504 185.538C9.70356 186.547 7.68191 186.752 5.98047 186.012C4.29946 185.271 3.4228 183.838 3.42578 182.462V156.475C3.42883 155.35 4.01101 154.192 5.16992 153.392L5.18066 153.384L135.476 62.4263ZM100.441 268.86L79.6641 291.209L75.7578 295.412H128.783L124.878 291.209L104.104 268.86L102.272 266.89L100.441 268.86ZM172.833 268.86L152.056 291.209L148.149 295.412H201.175L197.27 291.209L176.495 268.86L174.664 266.89L172.833 268.86ZM70.8154 287.844L75.1475 283.178L94.6943 262.126L96.2734 260.425L94.6934 258.724L75.1475 237.675L70.8154 233.01V287.844ZM143.207 287.844L147.539 283.177L167.082 262.125L168.661 260.425L167.082 258.724L147.539 237.674L143.207 233.008V287.844ZM201.785 237.675L182.242 258.724L180.662 260.425L182.242 262.126L201.788 283.178L206.12 287.844V281.477L206.117 239.376V233.01L201.785 237.675ZM129.396 237.674L109.851 258.724L108.271 260.425L109.851 262.126L129.396 283.177L133.729 287.843V233.009L129.396 237.674ZM79.665 229.643L100.441 251.992L102.273 253.96L104.104 251.991L124.878 229.643L128.784 225.441H75.7578L79.665 229.643ZM152.056 229.643L172.833 251.992L174.664 253.96L176.495 251.991L197.27 229.643L201.176 225.441H148.148L152.056 229.643ZM137.033 71.7085L13.9707 157.604L12.9014 158.35V174.27L16.835 171.514L135.472 88.4194C137.164 87.2495 139.558 87.2125 141.294 88.3091L141.46 88.4194L260.097 171.508L264.032 174.264L264.03 169.459L264.027 159.653L264.026 158.349L262.958 157.604L139.895 71.7085L138.464 70.7095L137.033 71.7085ZM235.077 164.133L234.008 163.386L139.898 97.6958L138.468 96.6968L137.036 97.6958L42.9268 163.386L41.8584 164.133V295.412H61.3359V221.446C61.3359 219.486 63.1968 217.449 66.0752 217.449H210.787C213.602 217.58 215.466 219.536 215.596 221.526V295.412H235.074V292.912L235.077 165.437V164.133Z" stroke="#DCA276" stroke-width="5"/>
</g>
<defs>
<clipPath id="clip0_136_76">
<rect width="276" height="335" fill="white"/>
</clipPath>
</defs>
</svg>
