<?xml version="1.0" encoding="UTF-8"?>
<!-- The Best Svg Icon site in the world: iconSvg.co, Visit us! https://iconsvg.co -->
<svg fill="#000000" width="800px" height="800px" version="1.1" viewBox="144 144 512 512" xmlns="http://www.w3.org/2000/svg">
 <g>
  <path d="m337.02 358.02c-5.7969 0-10.496 4.6992-10.496 10.496v41.984c0 2.7812 1.1055 5.4531 3.0742 7.4219 1.9688 1.9648 4.6367 3.0742 7.4219 3.0742h125.95c2.7812 0 5.4531-1.1094 7.4219-3.0742 1.9648-1.9688 3.0742-4.6406 3.0742-7.4219v-41.984c0-2.7852-1.1094-5.4531-3.0742-7.4219-1.9688-1.9688-4.6406-3.0742-7.4219-3.0742zm10.496 20.992h41.984v20.992h-41.984zm104.96 20.992h-41.984v-20.992h41.984z"/>
  <path d="m595.33 349.72-188.93-146.95h0.003906c-3.7734-2.9062-9.0312-2.9062-12.805 0l-188.93 146.95c-2.5742 1.9805-4.0859 5.043-4.0938 8.293v41.984c-0.007813 4.0117 2.2734 7.6797 5.8789 9.4453 3.5938 1.7422 7.8633 1.2969 11.02-1.1562l25.086-19.52v200.16c0 2.7852 1.1055 5.4531 3.0742 7.4219s4.6367 3.0742 7.4219 3.0742h293.89c2.7852 0 5.4531-1.1055 7.4219-3.0742s3.0742-4.6367 3.0742-7.4219v-200.16l25.086 19.523v-0.003907c3.0391 2.2461 7.0469 2.6875 10.496 1.1562 3.8086-1.6133 6.3164-5.3125 6.4023-9.4453v-41.984c-0.007813-3.25-1.5195-6.3125-4.0938-8.293zm-156.5 176.23-28.336 34.008v-68.012zm-49.328 34.008-28.34-34.008 28.34-34.004zm-11.863 18.473h-60.246l30.125-36.105zm74.84-36.105 30.121 36.105h-60.246zm41.984 17.633-28.34-34.008 28.336-34.004zm-41.984-50.383-30.125-36.102h60.246zm-104.96 0-30.125-36.102h60.246zm-13.645 16.375-28.34 34.008v-68.012zm202.57 52.48h-20.992v-115.45c-0.26172-5.6836-4.8125-10.234-10.496-10.496h-209.92c-5.7969 0-10.496 4.6992-10.496 10.496v115.45h-20.992v-205.93l136.45-106.12 136.45 106.12zm41.984-199.43-172.03-134.24c-3.7734-2.9062-9.0312-2.9062-12.805 0l-172.03 134.25v-15.852l178.43-138.76 178.43 138.76z"/>
 </g>
</svg>