<?xml version="1.0" encoding="UTF-8"?>
<!-- The Best Svg Icon site in the world: iconSvg.co, Visit us! https://iconsvg.co -->
<svg fill="#000000" width="800px" height="800px" version="1.1" viewBox="144 144 512 512" xmlns="http://www.w3.org/2000/svg">
 <path d="m603.57 400c0.023438-8.9961-2.4688-17.82-7.1992-25.473-4.7305-7.6523-11.508-13.828-19.566-17.824l-27.551-13.699 27.551-13.855c10.75-5.3828 19.105-14.578 23.438-25.789 4.3359-11.215 4.3359-23.641 0-34.852-4.332-11.215-12.688-20.41-23.438-25.793l-140.59-70.375c-22.812-11.332-49.613-11.332-72.422 0l-140.6 70.219c-10.746 5.3828-19.105 14.578-23.438 25.793-4.3359 11.211-4.3359 23.637 0 34.852 4.332 11.211 12.691 20.406 23.438 25.789l27.551 13.855-27.551 13.699c-10.805 5.3594-19.211 14.566-23.574 25.812-4.3633 11.246-4.3633 23.719 0 34.961 4.3633 11.246 12.77 20.453 23.574 25.816l27.551 13.699-27.551 13.855v-0.003906c-10.746 5.3867-19.105 14.582-23.438 25.793-4.3359 11.215-4.3359 23.641 0 34.852 4.332 11.215 12.691 20.41 23.438 25.793l140.59 70.375h0.003906c22.809 11.332 49.609 11.332 72.422 0l140.59-70.062c10.75-5.3828 19.105-14.578 23.438-25.789 4.3359-11.215 4.3359-23.641 0-34.852-4.332-11.215-12.688-20.41-23.438-25.793l-27.551-13.855 27.551-13.699v0.003906c8.082-4.0117 14.875-10.211 19.609-17.895 4.7305-7.6797 7.2109-16.539 7.1562-25.559zm-375.65-113.99c-0.28516-3.2656 0.45703-6.5352 2.125-9.3594 1.6641-2.8203 4.168-5.0547 7.1602-6.3867l140.75-69.746c13.875-6.9375 30.207-6.9375 44.082 0l140.75 70.379c3.7266 1.8828 6.6211 5.082 8.1211 8.9805 1.5 3.8945 1.5 8.2109 0 12.109-1.5 3.8945-4.3945 7.0977-8.1211 8.9805l-140.75 70.375c-13.875 6.9414-30.207 6.9414-44.082 0l-140.75-70.375c-2.8594-1.2852-5.2734-3.3945-6.9297-6.0586-1.6523-2.6641-2.4766-5.7656-2.3555-8.8984zm334.88 213.02c3.7266 1.8828 6.6211 5.0859 8.1211 8.9805 1.5 3.8984 1.5 8.2148 0 12.109-1.5 3.8984-4.3945 7.0977-8.1211 8.9844l-140.75 70.375c-13.875 6.9375-30.207 6.9375-44.082 0l-140.75-70.375c-3.7266-1.8867-6.6211-5.0859-8.1211-8.9844-1.5-3.8945-1.5-8.2109 0-12.109 1.5-3.8945 4.3945-7.0977 8.1211-8.9805l48.805-24.402 77.777 38.887h0.003906c22.809 11.332 49.609 11.332 72.422 0l77.777-38.887zm0-83.914-140.75 70.219c-13.875 6.9375-30.207 6.9375-44.082 0l-140.75-69.59c-3.7188-1.918-6.5977-5.1367-8.0938-9.0469-1.4922-3.9062-1.4922-8.2266 0-12.137 1.4961-3.9062 4.375-7.1289 8.0938-9.043l48.805-24.246 77.781 38.73c22.809 11.328 49.609 11.328 72.422 0l77.777-38.887 48.805 23.141c3.7188 1.918 6.5977 5.1367 8.0938 9.0469 1.4922 3.9062 1.4922 8.2305 0 12.137-1.4961 3.9102-4.375 7.1289-8.0938 9.0469z"/>
</svg>